<?xml version="1.0" encoding="UTF-8"?>
<svg width="339px" height="158px" viewBox="0 0 339 158" version="1.1" xmlns="http://www.w3.org/2000/svg" xmlns:xlink="http://www.w3.org/1999/xlink">
    <!-- Generator: Sketch 48.1 (47250) - http://www.bohemiancoding.com/sketch -->
    <title>LOGO-CCI-NC-Mai2012-FONDMARINE-CMJN</title>
    <desc>Created with Sketch.</desc>
    <defs>
        <polygon id="path-1" points="0.06 0.606 338.882 0.606 338.882 122.476107 0.06 122.476107"></polygon>
    </defs>
    <g id="Page-1" stroke="none" stroke-width="1" fill="none" fill-rule="evenodd">
        <g id="LOGO-CCI-NC-Mai2012-FONDMARINE-CMJN">
            <g id="Group-6">
                <mask id="mask-2" fill="white">
                    <use xlink:href="#path-1"></use>
                </mask>
                <g id="Clip-2"></g>
                <path d="M318.441,55.816 L319.07,56.363 C330.376,67.589 340.21,95.786 338.735,113.079 C337.516,127.389 321.836,121.639 321.956,119.617 C322.712,106.642 310.805,75.935 304.337,65.95 C302.661,63.364 289.481,41.016 290.453,40.596 C300.113,36.44 318.441,55.816 318.441,55.816" id="Fill-1" fill="#01B6D5" mask="url(#mask-2)"></path>
                <path d="M242.121,41.671 L242.649,42.708 C251.542,63.364 252.402,87.871 243.719,110.906 C236.532,129.965 220.217,114.134 221.222,112.064 C229.155,95.648 219.485,55.475 215.822,38.775 C214.873,34.442 207.76,4.765 207.791,1.427 C209.047,0.682 210.474,0.752 211.793,0.631 C224.903,-0.575 242.121,41.671 242.121,41.671" id="Fill-3" fill="#DA3485" mask="url(#mask-2)"></path>
                <path d="M283.733,47.949 L284.32,48.846 C294.559,66.821 298.071,89.21 292.92,111.302 C288.65,129.571 272.336,116.843 272.999,114.831 C278.227,98.902 269.749,70.069 264.613,55.154 C263.283,51.285 239.407,19.08 239.056,16.009 C240.096,15.191 250.71,11.394 251.816,11.799 C267.895,17.809 283.733,47.949 283.733,47.949" id="Fill-4" fill="#E67434" mask="url(#mask-2)"></path>
                <path d="M0,75.907 C0,53.405 8.771,31.484 42.018,31.484 C50.082,31.484 57.582,33.038 61.403,34.453 L57.723,51.575 C53.194,49.73 46.832,48.884 42.446,48.884 C27.165,48.884 20.795,59.208 20.795,75.907 C20.795,92.176 28.151,101.511 43.01,101.511 C47.396,101.511 54.611,100.525 58.997,98.681 L61.827,116.082 C58.292,117.497 50.082,119.197 41.882,119.197 C9.199,119.197 0,97.971 0,76.043 L0,75.907" id="Fill-5" fill="#0F1537" mask="url(#mask-2)"></path>
            </g>
            <path d="M71.831,75.907 C71.831,53.405 80.602,31.484 113.85,31.484 C121.911,31.484 129.416,33.038 133.235,34.453 L129.555,51.575 C125.027,49.73 118.661,48.884 114.277,48.884 C98.996,48.884 92.629,59.208 92.629,75.907 C92.629,92.176 99.988,101.511 114.842,101.511 C119.228,101.511 126.442,100.525 130.831,98.681 L133.658,116.082 C130.118,117.497 121.911,119.197 113.709,119.197 C81.025,119.197 71.831,97.971 71.831,76.043 L71.831,75.907" id="Fill-7" fill="#0F1537"></path>
            <path d="M154.418,116.647 L174.931,116.647 L174.931,33.879 L154.418,33.879 L154.418,116.647 Z M154.136,23.844 L175.216,23.844 L175.216,6.014 L154.136,6.014 L154.136,23.844 Z" id="Fill-8" fill="#0F1537"></path>
            <polyline id="Fill-9" fill="#0F1537" points="43.72 154.156 40.963 154.156 40.963 138.93 44.888 138.93 50.578 149.675 50.578 138.93 53.355 138.93 53.355 154.156 49.984 154.156 43.72 142.26 43.72 154.156"></polyline>
            <path d="M63.456,146.482 C63.456,150.511 65.2,151.936 67.541,151.936 C69.938,151.936 71.644,150.468 71.644,146.465 C71.644,142.676 70.079,141.15 67.562,141.15 C65.024,141.15 63.456,142.676 63.456,146.465 L63.456,146.482 Z M60.324,146.482 C60.324,142.797 61.967,138.572 67.541,138.572 C73.131,138.572 74.777,142.797 74.777,146.502 C74.777,150.231 73.171,154.551 67.562,154.551 C62.169,154.551 60.324,150.511 60.324,146.502 L60.324,146.482 Z" id="Fill-10" fill="#0F1537"></path>
            <path d="M87.873,154.493 C84.601,154.493 81.726,152.887 81.726,149.179 L81.726,138.93 L84.681,138.93 L84.681,148.148 C84.681,150.41 85.355,151.955 87.914,151.955 C90.491,151.955 91.164,150.41 91.164,148.148 L91.164,138.93 L94.117,138.93 L94.117,149.179 C94.117,152.887 91.242,154.493 87.894,154.493 L87.873,154.493" id="Fill-11" fill="#0F1537"></path>
            <polyline id="Fill-12" fill="#0F1537" points="110.922 138.93 114.094 138.93 108.364 154.156 105.708 154.156 99.937 138.93 103.21 138.93 107.115 150.511 110.922 138.93"></polyline>
            <polyline id="Fill-13" fill="#0F1537" points="122.963 145.176 127.822 145.176 127.822 147.612 122.963 147.612 122.963 151.598 128.912 151.598 128.912 154.156 120.068 154.156 120.068 138.93 128.534 138.93 128.534 141.487 122.963 141.487 122.963 145.176"></polyline>
            <polyline id="Fill-14" fill="#0F1537" points="138.693 151.598 144.463 151.598 144.463 154.156 135.777 154.156 135.777 138.93 138.693 138.93 138.693 151.598"></polyline>
            <polyline id="Fill-15" fill="#0F1537" points="153.63 151.598 159.401 151.598 159.401 154.156 150.717 154.156 150.717 138.93 153.63 138.93 153.63 151.598"></polyline>
            <polyline id="Fill-16" fill="#0F1537" points="168.546 145.176 173.406 145.176 173.406 147.612 168.546 147.612 168.546 151.598 174.496 151.598 174.496 154.156 165.652 154.156 165.652 138.93 174.119 138.93 174.119 141.487 168.546 141.487 168.546 145.176"></polyline>
            <polygon id="Fill-17" fill="#0F1537" points="180.43 148.625 185.785 148.625 185.785 146.246 180.43 146.246"></polygon>
            <path d="M191.956,146.701 C191.956,142.638 193.46,138.633 199.588,138.633 C200.817,138.633 202.167,138.852 203.038,139.068 L202.562,141.724 C201.728,141.427 200.659,141.248 199.649,141.248 C196.555,141.248 195.107,143.232 195.107,146.762 C195.107,150.093 196.774,151.776 199.727,151.776 C200.659,151.776 202.005,151.578 202.801,151.301 L203.098,153.997 C202.265,154.233 200.898,154.433 199.628,154.433 C193.561,154.433 191.956,150.727 191.956,146.722 L191.956,146.701" id="Fill-18" fill="#0F1537"></path>
            <path d="M217.045,148.207 L214.981,142.162 L212.881,148.207 L217.045,148.207 Z M213.712,138.93 L216.431,138.93 L222.277,154.156 L219.027,154.156 L217.7,150.487 L212.146,150.487 L210.857,154.156 L207.886,154.156 L213.712,138.93 Z" id="Fill-19" fill="#0F1537"></path>
            <polyline id="Fill-20" fill="#0F1537" points="231.088 151.598 236.859 151.598 236.859 154.156 228.173 154.156 228.173 138.93 231.088 138.93 231.088 151.598"></polyline>
            <path d="M251.161,135.123 L247.85,137.938 L246.245,137.62 L248.583,134.745 L251.161,135.123 Z M246.007,145.176 L250.864,145.176 L250.864,147.612 L246.007,147.612 L246.007,151.598 L251.954,151.598 L251.954,154.156 L243.112,154.156 L243.112,138.93 L251.577,138.93 L251.577,141.487 L246.007,141.487 L246.007,145.176 Z" id="Fill-21" fill="#0F1537"></path>
            <path d="M268.079,146.482 C268.079,143.311 266.85,141.487 263.303,141.487 L261.735,141.487 L261.735,151.598 L263.303,151.598 C266.671,151.598 268.079,149.775 268.079,146.502 L268.079,146.482 Z M263.321,138.93 C268.595,138.93 271.173,141.19 271.173,146.502 C271.173,150.983 269.409,154.156 263.163,154.156 L258.822,154.156 L258.822,138.93 L263.321,138.93 Z" id="Fill-22" fill="#0F1537"></path>
            <path d="M280.72,146.482 C280.72,150.511 282.464,151.936 284.803,151.936 C287.203,151.936 288.907,150.468 288.907,146.465 C288.907,142.676 287.341,141.15 284.824,141.15 C282.286,141.15 280.72,142.676 280.72,146.465 L280.72,146.482 Z M277.588,146.482 C277.588,142.797 279.232,138.572 284.803,138.572 C290.395,138.572 292.039,142.797 292.039,146.502 C292.039,150.231 290.432,154.551 284.824,154.551 C279.431,154.551 277.588,150.511 277.588,146.502 L277.588,146.482 Z" id="Fill-23" fill="#0F1537"></path>
            <polyline id="Fill-24" fill="#0F1537" points="301.767 154.156 299.01 154.156 299.01 138.93 302.935 138.93 308.625 149.675 308.625 138.93 311.402 138.93 311.402 154.156 308.031 154.156 301.767 142.26 301.767 154.156"></polyline>
            <polygon id="Fill-25" fill="#0F1537" points="319.083 154.156 322.039 154.156 322.039 138.93 319.083 138.93"></polygon>
            <polyline id="Fill-26" fill="#0F1537" points="332.71 145.176 337.567 145.176 337.567 147.612 332.71 147.612 332.71 151.598 338.66 151.598 338.66 154.156 329.815 154.156 329.815 138.93 338.282 138.93 338.282 141.487 332.71 141.487 332.71 145.176"></polyline>
            <path d="M13.708,154.574 C9.285,154.574 5.685,150.969 5.685,146.548 C5.685,142.124 9.285,138.526 13.708,138.526 C14.763,138.526 15.78,138.723 16.737,139.118 L18.091,135.984 C16.737,135.425 15.262,135.093 13.708,135.093 C7.392,135.093 2.256,140.229 2.256,146.548 C2.256,152.861 7.392,158 13.708,158 C16.623,158 18.927,156.93 20.579,155.682 L18.303,153.139 C16.918,154.09 15.375,154.574 13.708,154.574" id="Fill-27" fill="#0F1537"></path>
            <path d="M18.534,144.267 C18.758,144.76 19.05,145.586 19.05,146.548 C19.05,147.62 18.645,148.823 17.985,149.745 L20.299,152.298 C21.591,150.838 22.482,148.793 22.482,146.548 C22.482,145.241 22.152,143.93 21.626,142.821 L18.534,144.267" id="Fill-28" fill="#0F1537"></path>
            <path d="M23.338,139.737 C22.472,138.512 21.344,137.404 20.181,136.664 L17.613,142.429 L23.338,139.737" id="Fill-29" fill="#0F1537"></path>
            <path d="M16.837,151.523 C15.984,152.097 14.806,152.443 13.708,152.443 C10.453,152.443 7.805,149.801 7.805,146.548 C7.805,143.285 10.453,140.642 13.708,140.642 C14.433,140.642 15.151,140.782 15.888,141.079 L14.521,144.211 C14.265,144.115 13.998,144.045 13.716,144.045 C12.351,144.045 11.236,145.178 11.236,146.548 C11.236,147.907 12.346,149.01 13.708,149.01 C13.97,149.01 14.242,148.949 14.456,148.882 L16.837,151.523" id="Fill-30" fill="#0F1537"></path>
        </g>
    </g>
</svg>