<svg width="154" height="72" viewBox="0 0 154 72" xmlns="http://www.w3.org/2000/svg" xmlns:xlink="http://www.w3.org/1999/xlink">
    <title>LOGO-CCI-FOOTER</title>
    <defs>
        <path id="a" d="M.027.276h153.92V55.76H.026z" />
        <path id="c" d="M.027.276h153.92V55.76H.026z" />
    </defs>
    <g fill="none" fill-rule="evenodd">
        <mask id="b" fill="#fff">
            <use xlink:href="#a" />
        </mask>
        <path d="M144.66 25.412l.286.25c5.136 5.11 9.604 17.948 8.934 25.821-.554 6.515-7.677 3.897-7.623 2.977.344-5.908-5.065-19.888-8.004-24.434-.761-1.177-6.748-11.352-6.307-11.543 4.389-1.892 12.715 6.93 12.715 6.93" fill="#01B6D5" fill-rule="nonzero" mask="url(#b)" />
        <mask id="d" fill="#fff">
            <use xlink:href="#c" />
        </mask>
        <path d="M109.99 18.972l.24.472c4.04 9.405 4.43 20.562.486 31.05-3.265 8.677-10.676 1.47-10.22.527 3.604-7.474-.789-25.764-2.453-33.367C97.612 15.68 94.381 2.169 94.395.65c.57-.34 1.219-.308 1.818-.363 5.955-.549 13.777 18.685 13.777 18.685" fill="#DA3485" fill-rule="nonzero" mask="url(#d)" />
        <path d="M128.893 21.83l.267.409c4.651 8.184 6.247 18.377 3.907 28.435-1.94 8.318-9.35 2.523-9.05 1.607 2.375-7.252-1.476-20.38-3.81-27.17-.604-1.762-11.45-16.424-11.61-17.822.473-.373 5.295-2.101 5.797-1.917 7.305 2.736 14.5 16.458 14.5 16.458" fill="#E67434" fill-rule="nonzero" />
        <path d="M0 34.56c0-10.246 3.984-20.226 19.088-20.226 3.663 0 7.07.708 8.806 1.352l-1.672 7.795c-2.057-.84-4.947-1.225-6.94-1.225-6.942 0-9.835 4.7-9.835 12.303 0 7.407 3.341 11.657 10.091 11.657 1.993 0 5.27-.449 7.263-1.288l1.286 7.922c-1.606.645-5.336 1.419-9.061 1.419C4.179 54.269 0 44.605 0 34.62v-.062m33-.3C33 23.997 36.972 14 52.03 14c3.65 0 7.049.709 8.778 1.354l-1.666 7.808c-2.05-.841-4.934-1.227-6.92-1.227-6.92 0-9.803 4.708-9.803 12.323 0 7.42 3.333 11.677 10.06 11.677 1.986 0 5.253-.45 7.24-1.291L61 52.579C59.397 53.225 55.68 54 51.966 54 37.164 54 33 44.32 33 34.32v-.062M70.12 53h8.758V15.593H70.12V53zM70 11.058h9V3h-9v8.058zM20.335 71H19v-7h1.9l2.755 4.94V64H25v7h-1.632l-3.033-5.47V71m8.182-3.535c0 1.765.845 2.39 1.978 2.39 1.161 0 1.988-.644 1.988-2.397 0-1.66-.758-2.329-1.977-2.329-1.23 0-1.99.669-1.99 2.329v.007zm-1.517 0c0-1.614.796-3.465 3.495-3.465C33.203 64 34 65.85 34 67.474 34 69.108 33.222 71 30.506 71 27.894 71 27 69.23 27 67.474v-.009zM39.977 71C38.392 71 37 70.278 37 68.61V64h1.43v4.146c0 1.018.327 1.712 1.566 1.712 1.248 0 1.574-.694 1.574-1.712V64H43v4.61c0 1.668-1.392 2.39-3.013 2.39h-.01m11.455-7H53l-2.833 7h-1.314L46 64h1.618l1.931 5.324L51.432 64m4.205 2.872h2.747v1.12h-2.747v1.832H59V71h-5v-7h4.786v1.176h-3.15v1.696m8.043 2.952H67V71h-5v-7h1.679v5.824m5.998 0H73V71h-5v-7h1.677v5.824m7.959-2.952h2.748v1.12h-2.748v1.832H81V71h-5v-7h4.787v1.176h-3.15v1.696M82 68h3v-1h-3zm5-.426c0-1.8.675-3.574 3.425-3.574.551 0 1.157.097 1.548.193l-.214 1.176a4.124 4.124 0 0 0-1.307-.21c-1.388 0-2.038.879-2.038 2.442 0 1.476.748 2.222 2.073 2.222.418 0 1.023-.088 1.38-.21L92 70.806a6.392 6.392 0 0 1-1.557.193C87.72 71 87 69.358 87 67.584v-.01m12.455.691l-1.004-2.78-1.021 2.78h2.025zM97.834 64h1.322L102 71h-1.58l-.646-1.687h-2.702L96.445 71H95l2.834-7zm7.844 5.824H109V71h-5v-7h1.678v5.824m9.874-6.668l-1.873 1.16-.907-.131L114.094 63l1.458.156zm-2.915 4.143h2.747v1.004h-2.747v1.643H116V71h-5v-6.275h4.787v1.054h-3.15v1.52zm9.86.173c0-1.458-.597-2.296-2.32-2.296h-.762v4.648h.762c1.636 0 2.32-.838 2.32-2.343v-.009zM120.186 64c2.562 0 3.814 1.039 3.814 3.481 0 2.06-.857 3.519-3.891 3.519H118v-7h2.186zm7.331 3.465c0 1.765.845 2.39 1.978 2.39 1.162 0 1.988-.644 1.988-2.397 0-1.66-.759-2.329-1.978-2.329-1.23 0-1.988.669-1.988 2.329v.007zm-1.517 0c0-1.614.796-3.465 3.495-3.465 2.709 0 3.505 1.85 3.505 3.474 0 1.634-.778 3.526-3.495 3.526-2.612 0-3.505-1.77-3.505-3.526v-.009zM137.335 71H136v-7h1.9l2.755 4.94V64H142v7h-1.632l-3.033-5.47V71M145 71h2v-7h-2zm5.637-4.128h2.745v1.12h-2.745v1.832H154V71h-5v-7h4.786v1.176h-3.15v1.696M6 70.504a3.509 3.509 0 0 1-3.503-3.503 3.506 3.506 0 0 1 4.826-3.244l.59-1.368A5.002 5.002 0 0 0 6 62c-2.758 0-5 2.242-5 5 0 2.757 2.242 5 5 5a4.924 4.924 0 0 0 3-1.012l-.994-1.11A3.482 3.482 0 0 1 6 70.504" fill="#FFF" fill-rule="nonzero" />
        <path d="M8.244 65.763c.1.26.23.696.23 1.203 0 .566-.18 1.2-.474 1.687L9.03 70c.574-.77.97-1.85.97-3.034 0-.69-.147-1.38-.38-1.966l-1.376.763M10 64.6c-.454-.638-1.045-1.215-1.654-1.6L7 66l3-1.4" fill="#FFF" fill-rule="nonzero" />
        <path d="M9 69.61c-.472.243-1.124.39-1.732.39C5.466 70 4 68.88 4 67.502 4 66.12 5.466 65 7.268 65c.401 0 .799.06 1.207.185l-.757 1.327c-.142-.04-.29-.07-.446-.07-.755 0-1.373.48-1.373 1.06 0 .576.615 1.043 1.369 1.043.145 0 .295-.025.414-.054L9 69.611" fill="#FFF" fill-rule="nonzero" />
    </g>
</svg>